<svg xmlns="http://www.w3.org/2000/svg" viewBox="0 0 320 180" role="img">
  <!-- The Map: Places as round pins whose glyph is their kind, a region as a name alone, and a Journey drawn through its numbered Stops. -->
  <rect width="320" height="180" fill="#c9dbe1" fill-opacity="0.55"/>
  <path d="M0 18 C 40 30, 70 12, 110 26 S 170 60, 200 44 S 270 20, 320 30 L320 180 L150 180 C 150 150, 118 136, 96 142 S 40 150, 0 128 Z" fill="#f1ebdd" stroke="#9db3ba" stroke-width="1.2"/>
  <path d="M232 70 l10 -12 l8 9 l9 -14 l12 17" fill="none" stroke="#7a5a3a" stroke-opacity="0.35" stroke-width="1.5" stroke-linejoin="round"/>
  <path d="M60 110 Q 110 70, 150 92 Q 200 118, 250 96" fill="none" stroke="#1f7a8c" stroke-width="2.5" stroke-linecap="round"/>
  <text x="120" y="160" font-family="sans-serif" font-size="11" font-weight="600" letter-spacing="3" fill="#a87a22" fill-opacity="0.85">REGION</text>
  <g stroke="#f1ebdd" stroke-width="2">
    <circle cx="60" cy="110" r="11" fill="#1f7a8c"/>
    <circle cx="150" cy="92" r="11" fill="#1f7a8c"/>
    <circle cx="250" cy="96" r="11" fill="#1f7a8c"/>
    <circle cx="258" cy="44" r="11" fill="#7a5a3a"/>
    <circle cx="36" cy="52" r="11" fill="#7b4fa0"/>
  </g>
  <g fill="none" stroke="#ffffff" stroke-width="1.6" stroke-linejoin="round" stroke-linecap="round">
    <path d="M55 115 v-6 l2 -2 v-2 h6 v2 l2 2 v6 z"/>
    <path d="M145 97 v-6 l2 -2 v-2 h6 v2 l2 2 v6 z"/>
    <path d="M245 101 v-6 l2 -2 v-2 h6 v2 l2 2 v6 z"/>
    <path d="M252 49 l6 -10 l6 10 z"/>
    <path d="M31 57 h10 M33 57 v-6 M39 57 v-6 M30 51 l6 -4 l6 4"/>
  </g>
  <g font-family="sans-serif" font-size="9" font-weight="700" fill="#ffffff" text-anchor="middle">
    <rect x="66" y="92" width="14" height="12" rx="6" fill="#1f7a8c" stroke="#f1ebdd" stroke-width="1.5"/>
    <text x="73" y="101">1</text>
    <rect x="156" y="74" width="14" height="12" rx="6" fill="#1f7a8c" stroke="#f1ebdd" stroke-width="1.5"/>
    <text x="163" y="83">2</text>
    <rect x="256" y="78" width="14" height="12" rx="6" fill="#1f7a8c" stroke="#f1ebdd" stroke-width="1.5"/>
    <text x="263" y="87">3</text>
  </g>
</svg>
